<?xml version="1.0" encoding="UTF-8" standalone="no"?> <svg xmlns="http://www.w3.org/2000/svg" viewBox="0 0 48 48"><title>Dining Table</title><g id="Dining_Table" data-name="Dining Table"><style>.cl-1{stroke:#ffffff;fill:#ffffff;}</style><path class="cl-1" d="M29.109,37.871,27,36.465V24H37a2,2,0,0,0,2-2V20a2,2,0,0,0-2-2H33.949A10.015,10.015,0,0,0,25,9.051V8h1a1,1,0,0,0,0-2H22a1,1,0,0,0,0,2h1V9.051A10.015,10.015,0,0,0,14.051,18H10a2,2,0,0,0-2,2v2a2,2,0,0,0,2,2H21V36.465l-2.109,1.406A2,2,0,0,0,18,39.535V40a2,2,0,0,0,2,2h8a2,2,0,0,0,2-2v-.465A2,2,0,0,0,29.109,37.871ZM24,11a8.008,8.008,0,0,1,7.931,7H16.069A8.008,8.008,0,0,1,24,11ZM10,22V20H37v2ZM28,40H20v-.465l2.109-1.406A2,2,0,0,0,23,36.465V24h2V36.465a2,2,0,0,0,.891,1.664L28,39.535Z"/><path class="cl-1" d="M46.374,30.4l1.608-12.133A2,2,0,0,0,46.006,16H44.92a2,2,0,0,0-1.926,1.481l-2.587,9.662H34.243a2.986,2.986,0,0,0-2.892,2.248L31.064,30.5h0a2,2,0,0,0,1.9,2.5l-1.932,7.762a1,1,0,0,0,.73,1.212A.961.961,0,0,0,32,42a1,1,0,0,0,.97-.758L35.022,33H43.2l1.825,8.217A1,1,0,0,0,46,42a1.018,1.018,0,0,0,.218-.024,1,1,0,0,0,.76-1.193l-1.854-8.341A2.992,2.992,0,0,0,46.374,30.4ZM33,31l.286-1.109a.988.988,0,0,1,.956-.747h6.932a1,1,0,0,0,.966-.741L44.92,18H46L44.392,30.133a1,1,0,0,1-.981.867L33,31Z"/><path class="cl-1" d="M16.58,32.227a1.993,1.993,0,0,0,.357-1.727h0l-.286-1.106a2.988,2.988,0,0,0-2.893-2.25H7.593L5.006,17.481A2,2,0,0,0,3.08,16H1.994A2,2,0,0,0,.018,18.264L1.626,30.4a2.991,2.991,0,0,0,1.161,1.98L.919,40.783a1,1,0,0,0,1.953.434L4.7,33h8.175l2.052,8.242A1,1,0,0,0,15.9,42a.961.961,0,0,0,.242-.03,1,1,0,0,0,.729-1.212L14.935,33h.07A1.981,1.981,0,0,0,16.58,32.227ZM4.589,31a1,1,0,0,1-.981-.867L1.994,18h1.08L5.859,28.4a1,1,0,0,0,.966.741h6.932a.99.99,0,0,1,.957.748L15,31Z"/></g></svg>